<svg width="255" height="240" viewBox="0 0 255 240" fill="none" xmlns="http://www.w3.org/2000/svg">
<path d="M113.991 29.2885C120.275 19.3858 134.725 19.3858 141.009 29.2885L222.325 157.427C229.084 168.08 221.431 182 208.815 182H46.1849C33.5685 182 25.9155 168.08 32.6754 157.427L113.991 29.2885Z" fill="#A80000"/>
<path d="M28.5735 185V95.4H49.1815V153.768L91.9335 95.4H111.39V185H90.9095V126.76L48.1575 185H28.5735Z" fill="white"/>
<path d="M117.714 124V46.56L122.45 51.296H89.17V34.4H166.866V51.296H133.586L138.194 46.56V124H117.714Z" fill="white"/>
<path d="M145.324 185V95.4H184.108C192.129 95.4 199.041 96.7227 204.844 99.368C210.646 101.928 215.126 105.64 218.284 110.504C221.441 115.368 223.02 121.171 223.02 127.912C223.02 134.568 221.441 140.328 218.284 145.192C215.126 150.056 210.646 153.811 204.844 156.456C199.041 159.016 192.129 160.296 184.108 160.296H156.844L166.06 150.952V185H145.324ZM166.06 153.256L156.844 143.4H182.956C189.356 143.4 194.134 142.035 197.292 139.304C200.449 136.573 202.028 132.776 202.028 127.912C202.028 122.963 200.449 119.123 197.292 116.392C194.134 113.661 189.356 112.296 182.956 112.296H156.844L166.06 102.44V153.256Z" fill="white"/>
<path d="M205.526 204V188.6H208.474L215.03 199.468H213.468L219.914 188.6H222.862L222.884 204H219.54L219.518 193.726H220.156L214.986 202.372H213.402L208.122 193.726H208.87V204H205.526Z" fill="#A80000"/>
<path d="M190.457 201.096C191.307 201.345 192.019 201.419 192.591 201.316C193.177 201.199 193.698 200.788 194.153 200.084L194.901 198.962L195.231 198.588L200.335 188.6H203.833L197.277 200.788C196.69 201.888 195.993 202.731 195.187 203.318C194.395 203.905 193.522 204.235 192.569 204.308C191.615 204.396 190.625 204.227 189.599 203.802L190.457 201.096ZM195.165 201.558L188.213 188.6H192.019L197.123 198.94L195.165 201.558Z" fill="#A80000"/>
<path d="M171.86 204V188.6H175.402V198.632L182.75 188.6H186.094V204H182.574V193.99L175.226 204H171.86Z" fill="#A80000"/>
<path d="M156.155 204V188.6H162.821C164.2 188.6 165.388 188.827 166.385 189.282C167.383 189.722 168.153 190.36 168.695 191.196C169.238 192.032 169.509 193.029 169.509 194.188C169.509 195.332 169.238 196.322 168.695 197.158C168.153 197.994 167.383 198.639 166.385 199.094C165.388 199.534 164.2 199.754 162.821 199.754H158.135L159.719 198.148V204H156.155ZM159.719 198.544L158.135 196.85H162.623C163.723 196.85 164.545 196.615 165.087 196.146C165.63 195.677 165.901 195.024 165.901 194.188C165.901 193.337 165.63 192.677 165.087 192.208C164.545 191.739 163.723 191.504 162.623 191.504H158.135L159.719 189.81V198.544Z" fill="#A80000"/>
<path d="M136.843 204L143.707 188.6H147.227L154.113 204H150.373L144.741 190.404H146.149L140.495 204H136.843ZM140.275 200.7L141.221 197.994H149.141L150.109 200.7H140.275Z" fill="#A80000"/>
<path d="M128.669 204V190.69L129.483 191.504H123.763V188.6H137.117V191.504H131.397L132.189 190.69V204H128.669Z" fill="#A80000"/>
<path d="M117.924 188.6H121.488V204H117.924V188.6ZM110.928 204H107.364V188.6H110.928V204ZM118.188 197.686H110.664V194.672H118.188V197.686Z" fill="#A80000"/>
<path d="M95.8395 194.804H103.253V197.576H95.8395V194.804ZM96.1035 201.14H104.485V204H92.5615V188.6H104.199V191.46H96.1035V201.14Z" fill="#A80000"/>
<path d="M76.1689 204V188.6H83.3409C85.1302 188.6 86.5236 188.945 87.5209 189.634C88.5182 190.323 89.0169 191.306 89.0169 192.582C89.0169 193.843 88.5475 194.826 87.6089 195.53C86.6702 196.219 85.4235 196.564 83.8689 196.564L84.2869 195.64C86.0176 195.64 87.3596 195.985 88.3129 196.674C89.2662 197.363 89.7429 198.361 89.7429 199.666C89.7429 201.015 89.2296 202.079 88.2029 202.856C87.1909 203.619 85.7096 204 83.7589 204H76.1689ZM79.7109 201.36H83.6269C84.4482 201.36 85.0715 201.199 85.4969 200.876C85.9222 200.553 86.1349 200.055 86.1349 199.38C86.1349 198.735 85.9222 198.258 85.4969 197.95C85.0715 197.627 84.4482 197.466 83.6269 197.466H79.7109V201.36ZM79.7109 194.98H83.0329C83.8102 194.98 84.3969 194.826 84.7929 194.518C85.1889 194.195 85.3869 193.726 85.3869 193.11C85.3869 192.494 85.1889 192.032 84.7929 191.724C84.3969 191.401 83.8102 191.24 83.0329 191.24H79.7109V194.98Z" fill="#A80000"/>
<path d="M68.7465 188.6H72.3105V204H68.7465V188.6ZM61.7505 204H58.1865V188.6H61.7505V204ZM69.0105 197.686H61.4865V194.672H69.0105V197.686Z" fill="#A80000"/>
<path d="M40.1181 204V188.6H43.6601V198.632L51.0081 188.6H54.3521V204H50.8321V193.99L43.4841 204H40.1181Z" fill="#A80000"/>
</svg>
