<svg width="47" height="49" viewBox="0 0 47 49" fill="none" xmlns="http://www.w3.org/2000/svg">
<path d="M1.99555 46.19L0.735555 46.01C0.963555 46.022 1.14955 45.944 1.29355 45.776C1.44355 45.608 1.56055 45.374 1.64455 45.074C1.72855 44.774 1.79155 44.423 1.83355 44.021C1.87555 43.613 1.90555 43.172 1.92355 42.698L1.99555 40.7H6.61256V46.46H5.46055V41.69H2.99455L2.94955 42.806C2.93155 43.226 2.90455 43.625 2.86855 44.003C2.83855 44.375 2.78755 44.714 2.71555 45.02C2.64955 45.326 2.55655 45.581 2.43655 45.785C2.31655 45.989 2.16955 46.124 1.99555 46.19ZM0.519555 48.341L0.528555 46.01H7.52156V48.341H6.44156V47H1.60855V48.341H0.519555ZM10.5601 47.063C10.0681 47.063 9.63011 46.958 9.24611 46.748C8.86211 46.532 8.55911 46.238 8.33711 45.866C8.11511 45.494 8.00411 45.071 8.00411 44.597C8.00411 44.117 8.11511 43.694 8.33711 43.328C8.55911 42.956 8.86211 42.665 9.24611 42.455C9.63011 42.245 10.0681 42.14 10.5601 42.14C11.0581 42.14 11.4991 42.245 11.8831 42.455C12.2731 42.665 12.5761 42.953 12.7921 43.319C13.0141 43.685 13.1251 44.111 13.1251 44.597C13.1251 45.071 13.0141 45.494 12.7921 45.866C12.5761 46.238 12.2731 46.532 11.8831 46.748C11.4991 46.958 11.0581 47.063 10.5601 47.063ZM10.5601 46.1C10.8361 46.1 11.0821 46.04 11.2981 45.92C11.5141 45.8 11.6821 45.626 11.8021 45.398C11.9281 45.17 11.9911 44.903 11.9911 44.597C11.9911 44.285 11.9281 44.018 11.8021 43.796C11.6821 43.568 11.5141 43.394 11.2981 43.274C11.0821 43.154 10.8391 43.094 10.5691 43.094C10.2931 43.094 10.0471 43.154 9.83111 43.274C9.62111 43.394 9.45311 43.568 9.32711 43.796C9.20111 44.018 9.13811 44.285 9.13811 44.597C9.13811 44.903 9.20111 45.17 9.32711 45.398C9.45311 45.626 9.62111 45.8 9.83111 45.92C10.0471 46.04 10.2901 46.1 10.5601 46.1ZM16.5315 47.09C16.1355 47.09 15.7815 47.03 15.4695 46.91C15.1575 46.79 14.8875 46.607 14.6595 46.361C14.4375 46.109 14.2665 45.791 14.1465 45.407C14.0265 45.023 13.9665 44.567 13.9665 44.039C13.9665 43.655 13.9995 43.304 14.0655 42.986C14.1315 42.668 14.2305 42.383 14.3625 42.131C14.4945 41.873 14.6595 41.645 14.8575 41.447C15.0615 41.249 15.2985 41.084 15.5685 40.952C15.8385 40.82 16.1445 40.718 16.4865 40.646L18.7185 40.169L18.8805 41.177L16.8555 41.591C16.7415 41.615 16.6035 41.651 16.4415 41.699C16.2855 41.741 16.1235 41.807 15.9555 41.897C15.7935 41.981 15.6405 42.104 15.4965 42.266C15.3585 42.422 15.2445 42.626 15.1545 42.878C15.0705 43.124 15.0285 43.433 15.0285 43.805C15.0285 43.919 15.0315 44.006 15.0375 44.066C15.0495 44.12 15.0585 44.18 15.0645 44.246C15.0765 44.306 15.0825 44.396 15.0825 44.516L14.6595 44.075C14.7795 43.769 14.9445 43.508 15.1545 43.292C15.3705 43.07 15.6195 42.902 15.9015 42.788C16.1895 42.668 16.5015 42.608 16.8375 42.608C17.2875 42.608 17.6865 42.701 18.0345 42.887C18.3825 43.073 18.6555 43.334 18.8535 43.67C19.0515 44.006 19.1505 44.387 19.1505 44.813C19.1505 45.257 19.0425 45.65 18.8265 45.992C18.6105 46.334 18.3045 46.604 17.9085 46.802C17.5185 46.994 17.0595 47.09 16.5315 47.09ZM16.6215 46.181C16.8915 46.181 17.1285 46.124 17.3325 46.01C17.5425 45.89 17.7045 45.728 17.8185 45.524C17.9385 45.32 17.9985 45.092 17.9985 44.84C17.9985 44.588 17.9385 44.369 17.8185 44.183C17.7045 43.991 17.5425 43.838 17.3325 43.724C17.1285 43.61 16.8855 43.553 16.6035 43.553C16.3335 43.553 16.0905 43.607 15.8745 43.715C15.6645 43.823 15.4995 43.973 15.3795 44.165C15.2655 44.351 15.2085 44.567 15.2085 44.813C15.2085 45.065 15.2685 45.296 15.3885 45.506C15.5085 45.716 15.6735 45.881 15.8835 46.001C16.0995 46.121 16.3455 46.181 16.6215 46.181ZM23.0939 47V46.028L23.0309 45.821V44.12C23.0309 43.79 22.9319 43.535 22.7339 43.355C22.5359 43.169 22.2359 43.076 21.8339 43.076C21.5639 43.076 21.2969 43.118 21.0329 43.202C20.7749 43.286 20.5559 43.403 20.3759 43.553L19.9349 42.734C20.1929 42.536 20.4989 42.389 20.8529 42.293C21.2129 42.191 21.5849 42.14 21.9689 42.14C22.6649 42.14 23.2019 42.308 23.5799 42.644C23.9639 42.974 24.1559 43.487 24.1559 44.183V47H23.0939ZM21.5819 47.063C21.2219 47.063 20.9069 47.003 20.6369 46.883C20.3669 46.757 20.1569 46.586 20.0069 46.37C19.8629 46.148 19.7909 45.899 19.7909 45.623C19.7909 45.353 19.8539 45.11 19.9799 44.894C20.1119 44.678 20.3249 44.507 20.6189 44.381C20.9129 44.255 21.3029 44.192 21.7889 44.192H23.1839V44.939H21.8699C21.4859 44.939 21.2279 45.002 21.0959 45.128C20.9639 45.248 20.8979 45.398 20.8979 45.578C20.8979 45.782 20.9789 45.944 21.1409 46.064C21.3029 46.184 21.5279 46.244 21.8159 46.244C22.0919 46.244 22.3379 46.181 22.5539 46.055C22.7759 45.929 22.9349 45.743 23.0309 45.497L23.2199 46.172C23.1119 46.454 22.9169 46.673 22.6349 46.829C22.3589 46.985 22.0079 47.063 21.5819 47.063ZM25.548 47V42.194H27.897C28.479 42.194 28.935 42.302 29.265 42.518C29.601 42.734 29.769 43.04 29.769 43.436C29.769 43.826 29.613 44.132 29.301 44.354C28.989 44.57 28.575 44.678 28.059 44.678L28.194 44.399C28.776 44.399 29.208 44.507 29.49 44.723C29.778 44.933 29.922 45.242 29.922 45.65C29.922 46.076 29.763 46.409 29.445 46.649C29.127 46.883 28.644 47 27.996 47H25.548ZM26.619 46.181H27.906C28.212 46.181 28.443 46.133 28.599 46.037C28.755 45.935 28.833 45.782 28.833 45.578C28.833 45.362 28.761 45.203 28.617 45.101C28.473 44.999 28.248 44.948 27.942 44.948H26.619V46.181ZM26.619 44.201H27.798C28.086 44.201 28.302 44.15 28.446 44.048C28.596 43.94 28.671 43.79 28.671 43.598C28.671 43.4 28.596 43.253 28.446 43.157C28.302 43.061 28.086 43.013 27.798 43.013H26.619V44.201ZM31.1203 47V42.194H32.2453V45.362L34.9003 42.194H35.9263V47H34.8013V43.832L32.1553 47H31.1203ZM38.4386 47V42.878L38.6996 43.148H36.7466V42.194H41.2466V43.148H39.3026L39.5636 42.878V47H38.4386ZM44.3126 47.009L42.0626 47V42.194H43.1876V43.769L44.4746 43.778C45.0926 43.778 45.5636 43.916 45.8876 44.192C46.2116 44.468 46.3736 44.858 46.3736 45.362C46.3736 45.884 46.1936 46.292 45.8336 46.586C45.4736 46.874 44.9666 47.015 44.3126 47.009ZM44.2136 46.181C44.5436 46.187 44.7956 46.118 44.9696 45.974C45.1436 45.83 45.2306 45.62 45.2306 45.344C45.2306 45.068 45.1436 44.87 44.9696 44.75C44.8016 44.624 44.5496 44.558 44.2136 44.552L43.1876 44.543V46.172L44.2136 46.181Z" fill="white"/>
<path d="M16.0805 24.1688L13.8846 30.8328C13.7443 31.2588 14.1924 31.6398 14.5902 31.4328L21.483 27.8471M16.0805 24.1688L33.3685 5.77695C35.5296 4.20049 40.0677 4.83108 38.7711 9.45531L21.483 27.8471M16.0805 24.1688L21.483 27.8471" stroke="white" stroke-width="2.1"/>
<path d="M29.5 7H14.5H12C9.23858 7 7 9.23858 7 12V14.5V29.5V32C7 34.7614 9.23858 37 12 37H14.5H29.5H32C34.7614 37 37 34.7614 37 32V29.5V14.5" stroke="white" stroke-width="2.5"/>
</svg>
