<svg width="70" height="70" viewBox="0 0 70 70" fill="none" xmlns="http://www.w3.org/2000/svg">
<circle cx="35" cy="35" r="35" fill="#8B0000"/>
<!-- Corner brackets (scanner frame) -->
<path d="M13 22V13H22" stroke="white" stroke-width="3" stroke-linecap="round" stroke-linejoin="round"/>
<path d="M57 22V13H48" stroke="white" stroke-width="3" stroke-linecap="round" stroke-linejoin="round"/>
<path d="M13 48V57H22" stroke="white" stroke-width="3" stroke-linecap="round" stroke-linejoin="round"/>
<path d="M57 48V57H48" stroke="white" stroke-width="3" stroke-linecap="round" stroke-linejoin="round"/>
<!-- Top-left finder pattern -->
<rect x="16" y="16" width="12" height="12" rx="2" stroke="white" stroke-width="1.8" fill="none"/>
<rect x="19" y="19" width="6" height="6" fill="white" rx="1"/>
<!-- Top-right finder pattern -->
<rect x="42" y="16" width="12" height="12" rx="2" stroke="white" stroke-width="1.8" fill="none"/>
<rect x="45" y="19" width="6" height="6" fill="white" rx="1"/>
<!-- Bottom-left finder pattern -->
<rect x="16" y="42" width="12" height="12" rx="2" stroke="white" stroke-width="1.8" fill="none"/>
<rect x="19" y="45" width="6" height="6" fill="white" rx="1"/>
<!-- Data modules -->
<rect x="31" y="16" width="4" height="4" fill="white" rx="0.5"/>
<rect x="31" y="22" width="4" height="4" fill="white" rx="0.5"/>
<rect x="16" y="31" width="4" height="4" fill="white" rx="0.5"/>
<rect x="22" y="31" width="4" height="4" fill="white" rx="0.5"/>
<rect x="42" y="31" width="4" height="4" fill="white" rx="0.5"/>
<rect x="48" y="31" width="4" height="4" fill="white" rx="0.5"/>
<rect x="42" y="42" width="4" height="4" fill="white" rx="0.5"/>
<rect x="48" y="42" width="4" height="4" fill="white" rx="0.5"/>
<rect x="42" y="48" width="4" height="4" fill="white" rx="0.5"/>
<rect x="48" y="48" width="4" height="4" fill="white" rx="0.5"/>
<rect x="54" y="42" width="4" height="4" fill="white" rx="0.5"/>
<rect x="54" y="48" width="4" height="4" fill="white" rx="0.5"/>
</svg>
