<svg width="72" height="72" viewBox="0 0 72 72" fill="none" xmlns="http://www.w3.org/2000/svg">
<circle cx="36" cy="36" r="33.5" fill="white" stroke="#A80000" stroke-width="5"/>
<g clip-path="url(#clip0_365_45)">
<path d="M56.1666 48.8333C56.1666 49.8058 55.7803 50.7384 55.0926 51.4261C54.405 52.1137 53.4724 52.5 52.4999 52.5H19.4999C18.5275 52.5 17.5948 52.1137 16.9072 51.4261C16.2196 50.7384 15.8333 49.8058 15.8333 48.8333V28.6667C15.8333 27.6942 16.2196 26.7616 16.9072 26.0739C17.5948 25.3863 18.5275 25 19.4999 25H26.8333L30.4999 19.5H41.4999L45.1666 25H52.4999C53.4724 25 54.405 25.3863 55.0926 26.0739C55.7803 26.7616 56.1666 27.6942 56.1666 28.6667V48.8333Z" stroke="#A80000" stroke-width="4" stroke-linecap="round" stroke-linejoin="round"/>
<path d="M35.9999 45.1667C40.05 45.1667 43.3333 41.8834 43.3333 37.8333C43.3333 33.7832 40.05 30.5 35.9999 30.5C31.9498 30.5 28.6666 33.7832 28.6666 37.8333C28.6666 41.8834 31.9498 45.1667 35.9999 45.1667Z" stroke="#A80000" stroke-width="4" stroke-linecap="round" stroke-linejoin="round"/>
</g>
<defs>
<clipPath id="clip0_365_45">
<rect width="44" height="44" fill="white" transform="translate(14 14)"/>
</clipPath>
</defs>
</svg>
