<svg width="42" height="42" viewBox="0 0 42 42" fill="none" xmlns="http://www.w3.org/2000/svg">
<path d="M39.6685 19.8333C39.6685 19.189 40.1904 18.6667 40.8342 18.6667C41.4781 18.6667 42 19.189 42 19.8333V36.1667C42 39.3883 39.3903 42 36.1712 42H5.82884C2.60966 42 0 39.3883 0 36.1667V5.83333C0 2.61167 2.60966 0 5.82884 0H22.1819C22.8258 0 23.3477 0.522334 23.3477 1.16667C23.3477 1.811 22.8258 2.33333 22.1819 2.33333H5.82884C3.89733 2.33333 2.33154 3.90034 2.33154 5.83333V36.1667C2.33154 38.0997 3.89733 39.6667 5.82884 39.6667H36.1712C38.1027 39.6667 39.6685 38.0997 39.6685 36.1667V19.8333ZM36.9955 0.341709L41.6586 5.00837C42.1138 5.46399 42.1138 6.20268 41.6586 6.65829L23.0063 25.3249C22.7876 25.5437 22.4911 25.6667 22.1819 25.6667H17.5189C16.875 25.6667 16.3531 25.1443 16.3531 24.5V19.8333C16.3531 19.5239 16.4759 19.2272 16.6946 19.0084L35.3468 0.341709C35.8021 -0.113903 36.5402 -0.113903 36.9955 0.341709ZM36.1712 2.81658L18.6846 20.3166V23.3333H21.6991L39.1856 5.83333L36.1712 2.81658Z" fill="black"/>
</svg>
