<svg width="66" height="66" viewBox="0 0 66 66" fill="none" xmlns="http://www.w3.org/2000/svg">
<path d="M46.75 13.2C46.4462 13.2 46.2 13.4462 46.2 13.75V19.25C46.2 19.5538 46.4462 19.8 46.75 19.8H52.25C52.5538 19.8 52.8 19.5538 52.8 19.25V13.75C52.8 13.4462 52.5538 13.2 52.25 13.2H46.75ZM46.2 52.8V51.15C46.2 50.2387 46.9387 49.5 47.85 49.5C48.7613 49.5 49.5 50.2387 49.5 51.15V52.8H52.8V51.15C52.8 50.2387 53.5387 49.5 54.45 49.5C55.3613 49.5 56.1 50.2387 56.1 51.15V54.45C56.1 55.3613 55.3613 56.1 54.45 56.1H41.25C40.3387 56.1 39.6 55.3613 39.6 54.45V51.15C39.6 50.2387 40.3387 49.5 41.25 49.5C42.1613 49.5 42.9 50.2387 42.9 51.15V52.8H46.2ZM36.3 29.7H37.95C38.8613 29.7 39.6 30.4387 39.6 31.35C39.6 32.2613 38.8613 33 37.95 33H31.35C30.4387 33 29.7 32.2613 29.7 31.35C29.7 30.4387 30.4387 29.7 31.35 29.7H33V26.4H28.05C27.1387 26.4 26.4 25.6613 26.4 24.75C26.4 23.8387 27.1387 23.1 28.05 23.1H37.95C38.8613 23.1 39.6 23.8387 39.6 24.75C39.6 25.6613 38.8613 26.4 37.95 26.4H36.3V29.7ZM52.8 33H51.15C50.2387 33 49.5 32.2613 49.5 31.35C49.5 30.4387 50.2387 29.7 51.15 29.7H52.8V28.05C52.8 27.1387 53.5387 26.4 54.45 26.4C55.3613 26.4 56.1 27.1387 56.1 28.05V34.65C56.1 35.5613 55.3613 36.3 54.45 36.3C53.5387 36.3 52.8 35.5613 52.8 34.65V33ZM36.3 39.6H34.65C33.7387 39.6 33 38.8613 33 37.95C33 37.0387 33.7387 36.3 34.65 36.3H37.95C38.8613 36.3 39.6 37.0387 39.6 37.95V44.55C39.6 45.4613 38.8613 46.2 37.95 46.2H28.05C27.1387 46.2 26.4 45.4613 26.4 44.55C26.4 43.6387 27.1387 42.9 28.05 42.9H36.3V39.6ZM46.75 9.9H52.25C54.3763 9.9 56.1 11.6237 56.1 13.75V19.25C56.1 21.3763 54.3763 23.1 52.25 23.1H46.75C44.6237 23.1 42.9 21.3763 42.9 19.25V13.75C42.9 11.6237 44.6237 9.9 46.75 9.9ZM13.75 9.9H19.25C21.3763 9.9 23.1 11.6237 23.1 13.75V19.25C23.1 21.3763 21.3763 23.1 19.25 23.1H13.75C11.6237 23.1 9.9 21.3763 9.9 19.25V13.75C9.9 11.6237 11.6237 9.9 13.75 9.9ZM13.75 13.2C13.4462 13.2 13.2 13.4462 13.2 13.75V19.25C13.2 19.5538 13.4462 19.8 13.75 19.8H19.25C19.5538 19.8 19.8 19.5538 19.8 19.25V13.75C19.8 13.4462 19.5538 13.2 19.25 13.2H13.75ZM13.75 42.9H19.25C21.3763 42.9 23.1 44.6237 23.1 46.75V52.25C23.1 54.3763 21.3763 56.1 19.25 56.1H13.75C11.6237 56.1 9.9 54.3763 9.9 52.25V46.75C9.9 44.6237 11.6237 42.9 13.75 42.9ZM13.75 46.2C13.4462 46.2 13.2 46.4462 13.2 46.75V52.25C13.2 52.5538 13.4462 52.8 13.75 52.8H19.25C19.5538 52.8 19.8 52.5538 19.8 52.25V46.75C19.8 46.4462 19.5538 46.2 19.25 46.2H13.75ZM36.3 13.2H28.05C27.1387 13.2 26.4 12.4613 26.4 11.55C26.4 10.6387 27.1387 9.9 28.05 9.9H37.95C38.8613 9.9 39.6 10.6387 39.6 11.55V18.15C39.6 19.0613 38.8613 19.8 37.95 19.8C37.0387 19.8 36.3 19.0613 36.3 18.15V13.2ZM28.05 19.8C27.1387 19.8 26.4 19.0613 26.4 18.15C26.4 17.2387 27.1387 16.5 28.05 16.5H31.35C32.2613 16.5 33 17.2387 33 18.15C33 19.0613 32.2613 19.8 31.35 19.8H28.05ZM11.55 39.6C10.6387 39.6 9.9 38.8613 9.9 37.95C9.9 37.0387 10.6387 36.3 11.55 36.3H18.15C19.0613 36.3 19.8 37.0387 19.8 37.95C19.8 38.8613 19.0613 39.6 18.15 39.6H11.55ZM24.75 39.6C23.8387 39.6 23.1 38.8613 23.1 37.95C23.1 37.0387 23.8387 36.3 24.75 36.3H28.05C28.9613 36.3 29.7 37.0387 29.7 37.95C29.7 38.8613 28.9613 39.6 28.05 39.6H24.75ZM29.7 52.8V54.45C29.7 55.3613 28.9613 56.1 28.05 56.1C27.1387 56.1 26.4 55.3613 26.4 54.45V51.15C26.4 50.2387 27.1387 49.5 28.05 49.5H34.65C35.5613 49.5 36.3 50.2387 36.3 51.15C36.3 52.0613 35.5613 52.8 34.65 52.8H29.7ZM23.1 29.7H24.75C25.6613 29.7 26.4 30.4387 26.4 31.35C26.4 32.2613 25.6613 33 24.75 33H21.45C20.5387 33 19.8 32.2613 19.8 31.35V29.7H18.15C17.2387 29.7 16.5 28.9613 16.5 28.05C16.5 27.1387 17.2387 26.4 18.15 26.4H21.45C22.3613 26.4 23.1 27.1387 23.1 28.05V29.7ZM9.9 28.05C9.9 27.1387 10.6387 26.4 11.55 26.4C12.4613 26.4 13.2 27.1387 13.2 28.05V31.35C13.2 32.2613 12.4613 33 11.55 33C10.6387 33 9.9 32.2613 9.9 31.35V28.05ZM42.9 28.05C42.9 27.1387 43.6387 26.4 44.55 26.4C45.4613 26.4 46.2 27.1387 46.2 28.05V34.65C46.2 35.5613 45.4613 36.3 44.55 36.3C43.6387 36.3 42.9 35.5613 42.9 34.65V28.05ZM49.5 42.9V41.25C49.5 40.3387 50.2387 39.6 51.15 39.6H54.45C55.3613 39.6 56.1 40.3387 56.1 41.25C56.1 42.1613 55.3613 42.9 54.45 42.9H52.8V44.55C52.8 45.4613 52.0613 46.2 51.15 46.2H44.55C43.6387 46.2 42.9 45.4613 42.9 44.55V41.25C42.9 40.3387 43.6387 39.6 44.55 39.6C45.4613 39.6 46.2 40.3387 46.2 41.25V42.9H49.5ZM3.3 14.85C3.3 15.7613 2.56127 16.5 1.65 16.5C0.73873 16.5 0 15.7613 0 14.85V8.25C0 3.69365 3.69365 0 8.25 0H14.85C15.7613 0 16.5 0.73873 16.5 1.65C16.5 2.56127 15.7613 3.3 14.85 3.3H8.25C5.51619 3.3 3.3 5.51619 3.3 8.25V14.85ZM51.15 3.3C50.2387 3.3 49.5 2.56127 49.5 1.65C49.5 0.73873 50.2387 0 51.15 0H57.75C62.3063 0 66 3.69365 66 8.25V14.85C66 15.7613 65.2613 16.5 64.35 16.5C63.4387 16.5 62.7 15.7613 62.7 14.85V8.25C62.7 5.51619 60.4838 3.3 57.75 3.3H51.15ZM14.85 62.7C15.7613 62.7 16.5 63.4387 16.5 64.35C16.5 65.2613 15.7613 66 14.85 66H8.25C3.69365 66 0 62.3063 0 57.75V51.15C0 50.2387 0.73873 49.5 1.65 49.5C2.56127 49.5 3.3 50.2387 3.3 51.15V57.75C3.3 60.4838 5.51619 62.7 8.25 62.7H14.85ZM62.7 51.15C62.7 50.2387 63.4387 49.5 64.35 49.5C65.2613 49.5 66 50.2387 66 51.15V57.75C66 62.3063 62.3063 66 57.75 66H51.15C50.2387 66 49.5 65.2613 49.5 64.35C49.5 63.4387 50.2387 62.7 51.15 62.7H57.75C60.4838 62.7 62.7 60.4838 62.7 57.75V51.15Z" fill="black"/>
</svg>
