<svg width="101" height="101" viewBox="0 0 101 101" fill="none" xmlns="http://www.w3.org/2000/svg">
<circle cx="50.5" cy="50.5" r="48" fill="white" stroke="#A80000" stroke-width="5"/>
<mask id="mask0_244_2654" style="mask-type:alpha" maskUnits="userSpaceOnUse" x="23" y="23" width="53" height="54">
<path d="M60.3114 34.2976C60.0713 34.2976 59.8767 34.4922 59.8767 34.7322V39.0788C59.8767 39.3188 60.0713 39.5134 60.3114 39.5134H64.6579C64.898 39.5134 65.0926 39.3188 65.0926 39.0788V34.7322C65.0926 34.4922 64.898 34.2976 64.6579 34.2976H60.3114ZM59.8767 65.5927V64.2887C59.8767 63.5686 60.4605 62.9847 61.1807 62.9847C61.9008 62.9847 62.4846 63.5686 62.4846 64.2887V65.5927H65.0926V64.2887C65.0926 63.5686 65.6764 62.9847 66.3965 62.9847C67.1167 62.9847 67.7005 63.5686 67.7005 64.2887V66.8966C67.7005 67.6168 67.1167 68.2006 66.3965 68.2006H55.9648C55.2446 68.2006 54.6608 67.6168 54.6608 66.8966V64.2887C54.6608 63.5686 55.2446 62.9847 55.9648 62.9847C56.685 62.9847 57.2688 63.5686 57.2688 64.2887V65.5927H59.8767ZM52.0529 47.3372H53.3569C54.077 47.3372 54.6608 47.921 54.6608 48.6411C54.6608 49.3613 54.077 49.9451 53.3569 49.9451H48.141C47.4209 49.9451 46.8371 49.3613 46.8371 48.6411C46.8371 47.921 47.4209 47.3372 48.141 47.3372H49.445V44.7293H45.5331C44.8129 44.7293 44.2291 44.1455 44.2291 43.4253C44.2291 42.7051 44.8129 42.1213 45.5331 42.1213H53.3569C54.077 42.1213 54.6608 42.7051 54.6608 43.4253C54.6608 44.1455 54.077 44.7293 53.3569 44.7293H52.0529V47.3372ZM65.0926 49.9451H63.7886C63.0684 49.9451 62.4846 49.3613 62.4846 48.6411C62.4846 47.921 63.0684 47.3372 63.7886 47.3372H65.0926V46.0332C65.0926 45.3131 65.6764 44.7293 66.3965 44.7293C67.1167 44.7293 67.7005 45.3131 67.7005 46.0332V51.2491C67.7005 51.9692 67.1167 52.553 66.3965 52.553C65.6764 52.553 65.0926 51.9692 65.0926 51.2491V49.9451ZM52.0529 55.161H50.749C50.0288 55.161 49.445 54.5772 49.445 53.857C49.445 53.1368 50.0288 52.553 50.749 52.553H53.3569C54.077 52.553 54.6608 53.1368 54.6608 53.857V59.0729C54.6608 59.793 54.077 60.3768 53.3569 60.3768H45.5331C44.8129 60.3768 44.2291 59.793 44.2291 59.0729C44.2291 58.3527 44.8129 57.7689 45.5331 57.7689H52.0529V55.161ZM60.3114 31.6896H64.6579C66.3383 31.6896 67.7005 33.0518 67.7005 34.7322V39.0788C67.7005 40.7591 66.3383 42.1213 64.6579 42.1213H60.3114C58.631 42.1213 57.2688 40.7591 57.2688 39.0788V34.7322C57.2688 33.0518 58.631 31.6896 60.3114 31.6896ZM34.2321 31.6896H38.5786C40.259 31.6896 41.6212 33.0518 41.6212 34.7322V39.0788C41.6212 40.7591 40.259 42.1213 38.5786 42.1213H34.2321C32.5517 42.1213 31.1895 40.7591 31.1895 39.0788V34.7322C31.1895 33.0518 32.5517 31.6896 34.2321 31.6896ZM34.2321 34.2976C33.992 34.2976 33.7974 34.4922 33.7974 34.7322V39.0788C33.7974 39.3188 33.992 39.5134 34.2321 39.5134H38.5786C38.8187 39.5134 39.0133 39.3188 39.0133 39.0788V34.7322C39.0133 34.4922 38.8187 34.2976 38.5786 34.2976H34.2321ZM34.2321 57.7689H38.5786C40.259 57.7689 41.6212 59.1311 41.6212 60.8115V65.158C41.6212 66.8384 40.259 68.2006 38.5786 68.2006H34.2321C32.5517 68.2006 31.1895 66.8384 31.1895 65.158V60.8115C31.1895 59.1311 32.5517 57.7689 34.2321 57.7689ZM34.2321 60.3768C33.992 60.3768 33.7974 60.5714 33.7974 60.8115V65.158C33.7974 65.3981 33.992 65.5927 34.2321 65.5927H38.5786C38.8187 65.5927 39.0133 65.3981 39.0133 65.158V60.8115C39.0133 60.5714 38.8187 60.3768 38.5786 60.3768H34.2321ZM52.0529 34.2976H45.5331C44.8129 34.2976 44.2291 33.7137 44.2291 32.9936C44.2291 32.2734 44.8129 31.6896 45.5331 31.6896H53.3569C54.077 31.6896 54.6608 32.2734 54.6608 32.9936V38.2094C54.6608 38.9296 54.077 39.5134 53.3569 39.5134C52.6367 39.5134 52.0529 38.9296 52.0529 38.2094V34.2976ZM45.5331 39.5134C44.8129 39.5134 44.2291 38.9296 44.2291 38.2094C44.2291 37.4893 44.8129 36.9055 45.5331 36.9055H48.141C48.8612 36.9055 49.445 37.4893 49.445 38.2094C49.445 38.9296 48.8612 39.5134 48.141 39.5134H45.5331ZM32.4935 55.161C31.7733 55.161 31.1895 54.5772 31.1895 53.857C31.1895 53.1368 31.7733 52.553 32.4935 52.553H37.7093C38.4295 52.553 39.0133 53.1368 39.0133 53.857C39.0133 54.5772 38.4295 55.161 37.7093 55.161H32.4935ZM42.9252 55.161C42.205 55.161 41.6212 54.5772 41.6212 53.857C41.6212 53.1368 42.205 52.553 42.9252 52.553H45.5331C46.2533 52.553 46.8371 53.1368 46.8371 53.857C46.8371 54.5772 46.2533 55.161 45.5331 55.161H42.9252ZM46.8371 65.5927V66.8966C46.8371 67.6168 46.2533 68.2006 45.5331 68.2006C44.8129 68.2006 44.2291 67.6168 44.2291 66.8966V64.2887C44.2291 63.5686 44.8129 62.9847 45.5331 62.9847H50.749C51.4691 62.9847 52.0529 63.5686 52.0529 64.2887C52.0529 65.0089 51.4691 65.5927 50.749 65.5927H46.8371ZM41.6212 47.3372H42.9252C43.6453 47.3372 44.2291 47.921 44.2291 48.6411C44.2291 49.3613 43.6453 49.9451 42.9252 49.9451H40.3172C39.5971 49.9451 39.0133 49.3613 39.0133 48.6411V47.3372H37.7093C36.9892 47.3372 36.4054 46.7534 36.4054 46.0332C36.4054 45.3131 36.9892 44.7293 37.7093 44.7293H40.3172C41.0374 44.7293 41.6212 45.3131 41.6212 46.0332V47.3372ZM31.1895 46.0332C31.1895 45.3131 31.7733 44.7293 32.4935 44.7293C33.2136 44.7293 33.7974 45.3131 33.7974 46.0332V48.6411C33.7974 49.3613 33.2136 49.9451 32.4935 49.9451C31.7733 49.9451 31.1895 49.3613 31.1895 48.6411V46.0332ZM57.2688 46.0332C57.2688 45.3131 57.8526 44.7293 58.5727 44.7293C59.2929 44.7293 59.8767 45.3131 59.8767 46.0332V51.2491C59.8767 51.9692 59.2929 52.553 58.5727 52.553C57.8526 52.553 57.2688 51.9692 57.2688 51.2491V46.0332ZM62.4846 57.7689V56.4649C62.4846 55.7448 63.0684 55.161 63.7886 55.161H66.3965C67.1167 55.161 67.7005 55.7448 67.7005 56.4649C67.7005 57.1851 67.1167 57.7689 66.3965 57.7689H65.0926V59.0729C65.0926 59.793 64.5087 60.3768 63.7886 60.3768H58.5727C57.8526 60.3768 57.2688 59.793 57.2688 59.0729V56.4649C57.2688 55.7448 57.8526 55.161 58.5727 55.161C59.2929 55.161 59.8767 55.7448 59.8767 56.4649V57.7689H62.4846ZM25.9736 35.6015C25.9736 36.3217 25.3898 36.9055 24.6697 36.9055C23.9495 36.9055 23.3657 36.3217 23.3657 35.6015V30.3857C23.3657 26.7849 26.2847 23.8658 29.8855 23.8658H35.1014C35.8216 23.8658 36.4054 24.4496 36.4054 25.1698C36.4054 25.89 35.8216 26.4738 35.1014 26.4738H29.8855C27.7251 26.4738 25.9736 28.2252 25.9736 30.3857V35.6015ZM63.7886 26.4738C63.0684 26.4738 62.4846 25.89 62.4846 25.1698C62.4846 24.4496 63.0684 23.8658 63.7886 23.8658H69.0044C72.6052 23.8658 75.5243 26.7849 75.5243 30.3857V35.6015C75.5243 36.3217 74.9405 36.9055 74.2203 36.9055C73.5001 36.9055 72.9163 36.3217 72.9163 35.6015V30.3857C72.9163 28.2252 71.1649 26.4738 69.0044 26.4738H63.7886ZM35.1014 73.4165C35.8216 73.4165 36.4054 74.0003 36.4054 74.7204C36.4054 75.4406 35.8216 76.0244 35.1014 76.0244H29.8855C26.2847 76.0244 23.3657 73.1054 23.3657 69.5046V64.2887C23.3657 63.5686 23.9495 62.9847 24.6697 62.9847C25.3898 62.9847 25.9736 63.5686 25.9736 64.2887V69.5046C25.9736 71.665 27.7251 73.4165 29.8855 73.4165H35.1014ZM72.9163 64.2887C72.9163 63.5686 73.5001 62.9847 74.2203 62.9847C74.9405 62.9847 75.5243 63.5686 75.5243 64.2887V69.5046C75.5243 73.1054 72.6052 76.0244 69.0044 76.0244H63.7886C63.0684 76.0244 62.4846 75.4406 62.4846 74.7204C62.4846 74.0003 63.0684 73.4165 63.7886 73.4165H69.0044C71.1649 73.4165 72.9163 71.665 72.9163 69.5046V64.2887Z" fill="black"/>
</mask>
<g mask="url(#mask0_244_2654)">
<rect x="19.1931" y="20.7364" width="63.6334" height="62.5902" fill="#A80000"/>
</g>
</svg>
