<svg width="74" height="46" viewBox="0 0 74 46" fill="none" xmlns="http://www.w3.org/2000/svg">
<path d="M29.5 1.25H27C24.2386 1.25 22 3.48858 22 6.25V8.5M44.5 1.25H47C49.7614 1.25 52 3.48858 52 6.25V8.5M44.5 30.25H47C49.7614 30.25 52 28.0114 52 25.25V23M29.5 30.25H27C24.2386 30.25 22 28.0114 22 25.25V23" stroke="white" stroke-width="2.5"/>
<rect x="26" y="5.25" width="10" height="10" rx="2.3" stroke="white" stroke-width="1.5"/>
<rect x="38" y="5.25" width="10" height="10" rx="2.3" stroke="white" stroke-width="1.5"/>
<rect x="26" y="17.25" width="10" height="10" rx="2.3" stroke="white" stroke-width="1.5"/>
<path d="M4.09948 43.34C3.60748 43.34 3.15448 43.259 2.74048 43.097C2.32648 42.935 1.96648 42.71 1.66048 42.422C1.35448 42.128 1.11748 41.786 0.949481 41.396C0.78148 41 0.69748 40.568 0.69748 40.1C0.69748 39.632 0.78148 39.203 0.949481 38.813C1.11748 38.417 1.35448 38.075 1.66048 37.787C1.96648 37.493 2.32648 37.265 2.74048 37.103C3.15448 36.941 3.60448 36.86 4.09048 36.86C4.58248 36.86 5.03248 36.941 5.44048 37.103C5.85448 37.265 6.21448 37.493 6.52048 37.787C6.82648 38.075 7.06348 38.417 7.23148 38.813C7.39948 39.203 7.48348 39.632 7.48348 40.1C7.48348 40.568 7.39948 41 7.23148 41.396C7.06348 41.792 6.82648 42.134 6.52048 42.422C6.21448 42.71 5.85448 42.935 5.44048 43.097C5.03248 43.259 4.58548 43.34 4.09948 43.34ZM4.09048 42.314C4.40848 42.314 4.70248 42.26 4.97248 42.152C5.24248 42.044 5.47648 41.891 5.67448 41.693C5.87248 41.489 6.02548 41.255 6.13348 40.991C6.24748 40.721 6.30448 40.424 6.30448 40.1C6.30448 39.776 6.24748 39.482 6.13348 39.218C6.02548 38.948 5.87248 38.714 5.67448 38.516C5.47648 38.312 5.24248 38.156 4.97248 38.048C4.70248 37.94 4.40848 37.886 4.09048 37.886C3.77248 37.886 3.47848 37.94 3.20848 38.048C2.94448 38.156 2.71048 38.312 2.50648 38.516C2.30848 38.714 2.15248 38.948 2.03848 39.218C1.93048 39.482 1.87648 39.776 1.87648 40.1C1.87648 40.418 1.93048 40.712 2.03848 40.982C2.15248 41.252 2.30848 41.489 2.50648 41.693C2.70448 41.891 2.93848 42.044 3.20848 42.152C3.47848 42.26 3.77248 42.314 4.09048 42.314ZM9.57092 43.25V39.128L9.83192 39.398H7.87892V38.444H12.3789V39.398H10.4349L10.6959 39.128V43.25H9.57092ZM15.171 43.313C14.667 43.313 14.217 43.208 13.821 42.998C13.431 42.782 13.125 42.488 12.903 42.116C12.681 41.744 12.57 41.321 12.57 40.847C12.57 40.367 12.681 39.944 12.903 39.578C13.125 39.206 13.431 38.915 13.821 38.705C14.217 38.495 14.667 38.39 15.171 38.39C15.639 38.39 16.05 38.486 16.404 38.678C16.764 38.864 17.037 39.14 17.223 39.506L16.359 40.01C16.215 39.782 16.038 39.614 15.828 39.506C15.624 39.398 15.402 39.344 15.162 39.344C14.886 39.344 14.637 39.404 14.415 39.524C14.193 39.644 14.019 39.818 13.893 40.046C13.767 40.268 13.704 40.535 13.704 40.847C13.704 41.159 13.767 41.429 13.893 41.657C14.019 41.879 14.193 42.05 14.415 42.17C14.637 42.29 14.886 42.35 15.162 42.35C15.402 42.35 15.624 42.296 15.828 42.188C16.038 42.08 16.215 41.912 16.359 41.684L17.223 42.188C17.037 42.548 16.764 42.827 16.404 43.025C16.05 43.217 15.639 43.313 15.171 43.313ZM21.6605 43.25L19.9235 40.946L20.8415 40.379L22.9835 43.25H21.6605ZM18.2135 43.25V38.444H19.3385V43.25H18.2135ZM19.0055 41.324V40.388H20.6345V41.324H19.0055ZM20.9495 40.982L19.8965 40.856L21.6605 38.444H22.8665L20.9495 40.982ZM26.6051 43.25V42.278L26.5421 42.071V40.37C26.5421 40.04 26.4431 39.785 26.2451 39.605C26.0471 39.419 25.7471 39.326 25.3451 39.326C25.0751 39.326 24.8081 39.368 24.5441 39.452C24.2861 39.536 24.0671 39.653 23.8871 39.803L23.4461 38.984C23.7041 38.786 24.0101 38.639 24.3641 38.543C24.7241 38.441 25.0961 38.39 25.4801 38.39C26.1761 38.39 26.7131 38.558 27.0911 38.894C27.4751 39.224 27.6671 39.737 27.6671 40.433V43.25H26.6051ZM25.0931 43.313C24.7331 43.313 24.4181 43.253 24.1481 43.133C23.8781 43.007 23.6681 42.836 23.5181 42.62C23.3741 42.398 23.3021 42.149 23.3021 41.873C23.3021 41.603 23.3651 41.36 23.4911 41.144C23.6231 40.928 23.8361 40.757 24.1301 40.631C24.4241 40.505 24.8141 40.442 25.3001 40.442H26.6951V41.189H25.3811C24.9971 41.189 24.7391 41.252 24.6071 41.378C24.4751 41.498 24.4091 41.648 24.4091 41.828C24.4091 42.032 24.4901 42.194 24.6521 42.314C24.8141 42.434 25.0391 42.494 25.3271 42.494C25.6031 42.494 25.8491 42.431 26.0651 42.305C26.2871 42.179 26.4461 41.993 26.5421 41.747L26.7311 42.422C26.6231 42.704 26.4281 42.923 26.1461 43.079C25.8701 43.235 25.5191 43.313 25.0931 43.313ZM29.0592 43.25V38.444H30.1842V40.397H32.6052V38.444H33.7302V43.25H32.6052V41.351H30.1842V43.25H29.0592ZM35.2379 43.25V38.444H36.3629V41.612L39.0179 38.444H40.0439V43.25H38.9189V40.082L36.2729 43.25H35.2379ZM44.2213 43.313C43.8313 43.313 43.4743 43.223 43.1503 43.043C42.8323 42.863 42.5773 42.593 42.3853 42.233C42.1993 41.867 42.1063 41.405 42.1063 40.847C42.1063 40.283 42.1963 39.821 42.3763 39.461C42.5623 39.101 42.8143 38.834 43.1323 38.66C43.4503 38.48 43.8133 38.39 44.2213 38.39C44.6953 38.39 45.1123 38.492 45.4723 38.696C45.8383 38.9 46.1263 39.185 46.3363 39.551C46.5523 39.917 46.6603 40.349 46.6603 40.847C46.6603 41.345 46.5523 41.78 46.3363 42.152C46.1263 42.518 45.8383 42.803 45.4723 43.007C45.1123 43.211 44.6953 43.313 44.2213 43.313ZM41.5573 44.996V38.444H42.6283V39.578L42.5923 40.856L42.6823 42.134V44.996H41.5573ZM44.0953 42.35C44.3653 42.35 44.6053 42.29 44.8153 42.17C45.0313 42.05 45.2023 41.876 45.3283 41.648C45.4543 41.42 45.5173 41.153 45.5173 40.847C45.5173 40.535 45.4543 40.268 45.3283 40.046C45.2023 39.818 45.0313 39.644 44.8153 39.524C44.6053 39.404 44.3653 39.344 44.0953 39.344C43.8253 39.344 43.5823 39.404 43.3663 39.524C43.1503 39.644 42.9793 39.818 42.8533 40.046C42.7273 40.268 42.6643 40.535 42.6643 40.847C42.6643 41.153 42.7273 41.42 42.8533 41.648C42.9793 41.876 43.1503 42.05 43.3663 42.17C43.5823 42.29 43.8253 42.35 44.0953 42.35ZM49.9219 43.313C49.4299 43.313 48.9919 43.208 48.6079 42.998C48.2239 42.782 47.9209 42.488 47.6989 42.116C47.4769 41.744 47.3659 41.321 47.3659 40.847C47.3659 40.367 47.4769 39.944 47.6989 39.578C47.9209 39.206 48.2239 38.915 48.6079 38.705C48.9919 38.495 49.4299 38.39 49.9219 38.39C50.4199 38.39 50.8609 38.495 51.2449 38.705C51.6349 38.915 51.9379 39.203 52.1539 39.569C52.3759 39.935 52.4869 40.361 52.4869 40.847C52.4869 41.321 52.3759 41.744 52.1539 42.116C51.9379 42.488 51.6349 42.782 51.2449 42.998C50.8609 43.208 50.4199 43.313 49.9219 43.313ZM49.9219 42.35C50.1979 42.35 50.4439 42.29 50.6599 42.17C50.8759 42.05 51.0439 41.876 51.1639 41.648C51.2899 41.42 51.3529 41.153 51.3529 40.847C51.3529 40.535 51.2899 40.268 51.1639 40.046C51.0439 39.818 50.8759 39.644 50.6599 39.524C50.4439 39.404 50.2009 39.344 49.9309 39.344C49.6549 39.344 49.4089 39.404 49.1929 39.524C48.9829 39.644 48.8149 39.818 48.6889 40.046C48.5629 40.268 48.4999 40.535 48.4999 40.847C48.4999 41.153 48.5629 41.42 48.6889 41.648C48.8149 41.876 48.9829 42.05 49.1929 42.17C49.4089 42.29 49.6519 42.35 49.9219 42.35ZM53.5983 43.25V38.444H55.9473C56.5293 38.444 56.9853 38.552 57.3153 38.768C57.6513 38.984 57.8193 39.29 57.8193 39.686C57.8193 40.076 57.6633 40.382 57.3513 40.604C57.0393 40.82 56.6253 40.928 56.1093 40.928L56.2443 40.649C56.8263 40.649 57.2583 40.757 57.5403 40.973C57.8283 41.183 57.9723 41.492 57.9723 41.9C57.9723 42.326 57.8133 42.659 57.4953 42.899C57.1773 43.133 56.6943 43.25 56.0463 43.25H53.5983ZM54.6693 42.431H55.9563C56.2623 42.431 56.4933 42.383 56.6493 42.287C56.8053 42.185 56.8833 42.032 56.8833 41.828C56.8833 41.612 56.8113 41.453 56.6673 41.351C56.5233 41.249 56.2983 41.198 55.9923 41.198H54.6693V42.431ZM54.6693 40.451H55.8483C56.1363 40.451 56.3523 40.4 56.4963 40.298C56.6463 40.19 56.7213 40.04 56.7213 39.848C56.7213 39.65 56.6463 39.503 56.4963 39.407C56.3523 39.311 56.1363 39.263 55.8483 39.263H54.6693V40.451ZM62.0866 43.25V42.278L62.0236 42.071V40.37C62.0236 40.04 61.9246 39.785 61.7266 39.605C61.5286 39.419 61.2286 39.326 60.8266 39.326C60.5566 39.326 60.2896 39.368 60.0256 39.452C59.7676 39.536 59.5486 39.653 59.3686 39.803L58.9276 38.984C59.1856 38.786 59.4916 38.639 59.8456 38.543C60.2056 38.441 60.5776 38.39 60.9616 38.39C61.6576 38.39 62.1946 38.558 62.5726 38.894C62.9566 39.224 63.1486 39.737 63.1486 40.433V43.25H62.0866ZM60.5746 43.313C60.2146 43.313 59.8996 43.253 59.6296 43.133C59.3596 43.007 59.1496 42.836 58.9996 42.62C58.8556 42.398 58.7836 42.149 58.7836 41.873C58.7836 41.603 58.8466 41.36 58.9726 41.144C59.1046 40.928 59.3176 40.757 59.6116 40.631C59.9056 40.505 60.2956 40.442 60.7816 40.442H62.1766V41.189H60.8626C60.4786 41.189 60.2206 41.252 60.0886 41.378C59.9566 41.498 59.8906 41.648 59.8906 41.828C59.8906 42.032 59.9716 42.194 60.1336 42.314C60.2956 42.434 60.5206 42.494 60.8086 42.494C61.0846 42.494 61.3306 42.431 61.5466 42.305C61.7686 42.179 61.9276 41.993 62.0236 41.747L62.2126 42.422C62.1046 42.704 61.9096 42.923 61.6276 43.079C61.3516 43.235 61.0006 43.313 60.5746 43.313ZM65.5397 43.25V39.128L65.8007 39.398H63.8477V38.444H68.3477V39.398H66.4037L66.6647 39.128V43.25H65.5397ZM71.4137 43.259L69.1637 43.25V38.444H70.2887V40.019L71.5757 40.028C72.1937 40.028 72.6647 40.166 72.9887 40.442C73.3127 40.718 73.4747 41.108 73.4747 41.612C73.4747 42.134 73.2947 42.542 72.9347 42.836C72.5747 43.124 72.0677 43.265 71.4137 43.259ZM71.3147 42.431C71.6447 42.437 71.8967 42.368 72.0707 42.224C72.2447 42.08 72.3317 41.87 72.3317 41.594C72.3317 41.318 72.2447 41.12 72.0707 41C71.9027 40.874 71.6507 40.808 71.3147 40.802L70.2887 40.793V42.422L71.3147 42.431Z" fill="white"/>
<rect x="38" y="17.25" width="3" height="3" rx="1" fill="white"/>
<rect x="38" y="20.75" width="3" height="3" rx="1" fill="white"/>
<rect x="38" y="24.25" width="3" height="3" rx="1" fill="white"/>
<rect x="42" y="20.75" width="3" height="3" rx="1" fill="white"/>
<rect x="42" y="24.25" width="3" height="3" rx="1" fill="white"/>
<rect x="46" y="17.25" width="3" height="3" rx="1" fill="white"/>
<rect x="46" y="20.75" width="3" height="3" rx="1" fill="white"/>
</svg>
