<svg width="49" height="49" viewBox="0 0 49 49" fill="none" xmlns="http://www.w3.org/2000/svg">
<path d="M33.6951 27.1946L44.2091 31.9737C46.9238 33.2077 48.6667 35.9144 48.6667 38.8963V41.0625C48.6667 45.2622 45.2622 48.6667 41.0625 48.6667H7.60417C3.4045 48.6667 0 45.2622 0 41.0625V38.8963C0 35.9144 1.7429 33.2077 4.45754 31.9737L14.9716 27.1946C11.4126 24.411 9.125 20.0768 9.125 15.2083C9.125 6.809 15.934 0 24.3333 0C32.7327 0 39.5417 6.809 39.5417 15.2083C39.5417 20.0768 37.2541 24.411 33.6951 27.1946ZM18.1322 29.0991L5.71619 34.7428C4.0874 35.4831 3.04167 37.1072 3.04167 38.8963V41.0625C3.04167 43.5823 5.08437 45.625 7.60417 45.625H41.0625C43.5823 45.625 45.625 43.5823 45.625 41.0625V38.8963C45.625 37.1072 44.5793 35.4831 42.9505 34.7428L30.5345 29.0991C28.6407 29.9459 26.542 30.4167 24.3333 30.4167C22.1247 30.4167 20.026 29.9459 18.1322 29.0991ZM24.3333 27.375C31.0528 27.375 36.5 21.9278 36.5 15.2083C36.5 8.48887 31.0528 3.04167 24.3333 3.04167C17.6139 3.04167 12.1667 8.48887 12.1667 15.2083C12.1667 21.9278 17.6139 27.375 24.3333 27.375Z" fill="black"/>
</svg>
