<svg width="68" height="68" viewBox="0 0 68 68" fill="none" xmlns="http://www.w3.org/2000/svg">
    <g>
        <circle cx="34" cy="30" r="30" fill="white"/>
        <circle cx="34" cy="30" r="29.5" stroke="black" stroke-opacity="0.3"/>
    </g>
    <path d="M35.0763 30H15.8889C15.398 30 15 29.602 15 29.1111C15 28.6202 15.398 28.2222 15.8889 28.2222H35.0763L29.4826 22.6285C29.1354 22.2814 29.1354 21.7186 29.4826 21.3715C29.8297 21.0243 30.3925 21.0243 30.7397 21.3715L37.8508 28.4826C38.1979 28.8297 38.1979 29.3925 37.8508 29.7397L30.7397 36.8508C30.3925 37.1979 29.8297 37.1979 29.4826 36.8508C29.1354 36.5036 29.1354 35.9408 29.4826 35.5937L35.0763 30ZM28.3333 15.7778C27.8424 15.7778 27.4444 15.3798 27.4444 14.8889C27.4444 14.398 27.8424 14 28.3333 14H42.5556C45.0102 14 47 15.9898 47 18.4444V41.5556C47 44.0102 45.0102 46 42.5556 46H28.3333C27.8424 46 27.4444 45.602 27.4444 45.1111C27.4444 44.6202 27.8424 44.2222 28.3333 44.2222H42.5556C44.0283 44.2222 45.2222 43.0283 45.2222 41.5556V18.4444C45.2222 16.9717 44.0283 15.7778 42.5556 15.7778H28.3333Z" fill="black"/>
</svg>
