<svg width="38" height="34" viewBox="0 0 38 34" fill="none" xmlns="http://www.w3.org/2000/svg">
<rect width="38" height="34" rx="6" fill="#D9D9D9"/>
<path d="M24.771 18.7638L31.2522 21.7098C32.9256 22.4705 34 24.139 34 25.9772V27.3125C34 29.9013 31.9013 32 29.3125 32H8.6875C6.09867 32 4 29.9013 4 27.3125V25.9772C4 24.139 5.07439 22.4705 6.7478 21.7098L13.229 18.7638C11.0352 17.0479 9.625 14.3761 9.625 11.375C9.625 6.19733 13.8223 2 19 2C24.1777 2 28.375 6.19733 28.375 11.375C28.375 14.3761 26.9648 17.0479 24.771 18.7638ZM15.1774 19.9378L7.52368 23.4168C6.51963 23.8732 5.875 24.8743 5.875 25.9772V27.3125C5.875 28.8658 7.1342 30.125 8.6875 30.125H29.3125C30.8658 30.125 32.125 28.8658 32.125 27.3125V25.9772C32.125 24.8743 31.4804 23.8732 30.4763 23.4168L22.8226 19.9378C21.6552 20.4598 20.3615 20.75 19 20.75C17.6385 20.75 16.3448 20.4598 15.1774 19.9378ZM19 18.875C23.1421 18.875 26.5 15.5171 26.5 11.375C26.5 7.23286 23.1421 3.875 19 3.875C14.8579 3.875 11.5 7.23286 11.5 11.375C11.5 15.5171 14.8579 18.875 19 18.875Z" fill="black" fill-opacity="0.65"/>
</svg>
