<svg width="40" height="34" viewBox="0 0 40 34" fill="none" xmlns="http://www.w3.org/2000/svg">
<rect x="2" width="38" height="34" rx="6" fill="#D9D9D9"/>
<rect width="38" height="34" rx="6" fill="#D9D9D9"/>
<path d="M20 31.5C11.9919 31.5 5.5 25.0081 5.5 17C5.5 8.99187 11.9919 2.5 20 2.5C28.0081 2.5 34.5 8.99187 34.5 17C34.5 25.0081 28.0081 31.5 20 31.5ZM20 31C27.732 31 34 24.732 34 17C34 9.26801 27.732 3 20 3C12.268 3 6 9.26801 6 17C6 24.732 12.268 31 20 31ZM25.3953 20.5466C25.5077 20.6268 25.5337 20.783 25.4534 20.8953C25.3732 21.0077 25.217 21.0337 25.1047 20.9534L19.8547 17.2034C19.8078 17.17 19.774 17.1213 19.7588 17.0658L17.5088 8.81578C17.4725 8.68257 17.551 8.54514 17.6842 8.50881C17.8174 8.47248 17.9549 8.55101 17.9912 8.68422L19.2338 13.2405C19.8702 15.5739 21.2927 17.6161 23.2608 19.0219L25.3953 20.5466Z" stroke="black" stroke-opacity="0.65"/>
</svg>
